# xmcd
#
# Track frame offsets:
#	150
#	25980
#	40932
#	58202
#	73777
#	89262
#	113917
#	122829
#	141215
#	151755
#	165320
#
# Disc length: 2411 seconds
#
# Revision: 0
# Processed by: cddbd v1.5PL3 Copyright (c) Steve Scherf et al.
# Submitted via: MusicManager 7.0.3.0 
#
DISCID=9209690b
DTITLE=Alexandre Araújo - Berimblues
DYEAR=1072
DGENRE=blues
TTITLE0=Sol
TTITLE1=Roção
TTITLE2=Funkball
TTITLE3=Cablueira
TTITLE4=Carro De Boi
TTITLE5=Flamenca
TTITLE6=Soldadinho
TTITLE7=Monica Surf
TTITLE8=Berinjela
TTITLE9=Berimblues
TTITLE10=Raga Tupiniquim
EXTD=
EXTT0=
EXTT1=
EXTT2=
EXTT3=
EXTT4=
EXTT5=
EXTT6=
EXTT7=
EXTT8=
EXTT9=
EXTT10=
PLAYORDER=
